<?xml version="1.0" encoding="UTF-8" standalone="no"?>
<!-- Created with Inkscape (http://www.inkscape.org/) -->
<svg width="100" height="100" viewBox="0 0 26.458333 26.458333" version="1.1" id="svg1" inkscape:version="1.3.2 (091e20e, 2023-11-25, custom)" sodipodi:docname="telemetre.svg" xmlns:inkscape="http://www.inkscape.org/namespaces/inkscape" xmlns:sodipodi="http://sodipodi.sourceforge.net/DTD/sodipodi-0.dtd" xmlns:xlink="http://www.w3.org/1999/xlink" xmlns="http://www.w3.org/2000/svg" xmlns:svg="http://www.w3.org/2000/svg">
  <sodipodi:namedview id="namedview1" pagecolor="#ffffff" bordercolor="#666666" borderopacity="1.0" inkscape:showpageshadow="2" inkscape:pageopacity="0.0" inkscape:pagecheckerboard="0" inkscape:deskcolor="#d1d1d1" inkscape:document-units="mm" inkscape:zoom="8.4167789" inkscape:cx="56.07846" inkscape:cy="58.514071" inkscape:window-width="2560" inkscape:window-height="1377" inkscape:window-x="1912" inkscape:window-y="-8" inkscape:window-maximized="1" inkscape:current-layer="layer1" showgrid="true">
    <inkscape:grid id="grid2" units="px" originx="0" originy="0" spacingx="0.26458333" spacingy="0.26458333" empcolor="#0099e5" empopacity="0.30196078" color="#0099e5" opacity="0.14901961" empspacing="5" dotted="false" gridanglex="30" gridanglez="30" visible="true"/>
  </sodipodi:namedview>
  <defs id="defs1">
    <pattern inkscape:collect="always" xlink:href="#Checkerboard" preserveAspectRatio="xMidYMid" id="pattern213" patternTransform="scale(3.8)" x="0" y="0"/>
    <pattern inkscape:collect="always" xlink:href="#Checkerboard" preserveAspectRatio="xMidYMid" id="pattern212" patternTransform="scale(3.8)" x="0" y="0"/>
    <pattern inkscape:collect="always" style="fill:#000000" patternUnits="userSpaceOnUse" width="2" height="2" patternTransform="translate(0,0) scale(10,10)" id="Checkerboard" inkscape:stockid="Checkerboard" preserveAspectRatio="xMidYMid" inkscape:isstock="true" inkscape:label="Damier">
      <rect style="stroke:none" x="0" y="0" width="1" height="1" id="rect209"/>
      <rect style="stroke:none" x="1" y="1" width="1" height="1" id="rect211"/>
    </pattern>
    <clipPath clipPathUnits="userSpaceOnUse" id="clipPath192">
      <rect style="fill:none;stroke:#000000;stroke-width:0.999999;stroke-linecap:butt;stroke-linejoin:bevel;paint-order:stroke markers fill;stop-color:#000000" id="rect192" width="46.160622" height="39.922417" x="86.574379" y="420.06253"/>
    </clipPath>
    <clipPath clipPathUnits="userSpaceOnUse" id="clipPath191">
      <rect style="fill:none;stroke:#000000;stroke-width:0.999999;stroke-linecap:butt;stroke-linejoin:bevel;paint-order:stroke markers fill;stop-color:#000000" id="rect191" width="46.160622" height="39.922417" x="86.574379" y="420.06253"/>
    </clipPath>
    <clipPath clipPathUnits="userSpaceOnUse" id="clipPath27">
      <rect style="fill:none;stroke:#000000;stroke-width:0.999999;stroke-linecap:butt;stroke-linejoin:bevel;paint-order:stroke markers fill;stop-color:#000000" id="rect28-6" width="46.160622" height="39.922417" x="86.574379" y="420.06253"/>
    </clipPath>
    <clipPath clipPathUnits="userSpaceOnUse" id="clipPath24">
      <rect style="fill:none;stroke:#000000;stroke-width:0.999999;stroke-linecap:butt;stroke-linejoin:bevel;paint-order:stroke markers fill;stop-color:#000000" id="rect24" width="44.999748" height="77.937294" x="251.53429" y="222.73541"/>
    </clipPath>
    <clipPath clipPathUnits="userSpaceOnUse" id="clipPath187">
      <rect style="fill:none;stroke:#000000;stroke-linecap:butt;stroke-linejoin:bevel;paint-order:stroke markers fill;stop-color:#000000" id="rect187" width="45.034248" height="38.955639" x="262.48285" y="121.00073"/>
    </clipPath>
    <clipPath clipPathUnits="userSpaceOnUse" id="clipPath186">
      <rect style="fill:none;stroke:#000000;stroke-linecap:butt;stroke-linejoin:bevel;paint-order:stroke markers fill;stop-color:#000000" id="rect186" width="45.034248" height="38.955639" x="262.48285" y="121.00073"/>
    </clipPath>
    <clipPath clipPathUnits="userSpaceOnUse" id="clipPath15">
      <rect style="fill:none;stroke:#000000;stroke-linecap:butt;stroke-linejoin:bevel;paint-order:stroke markers fill;stop-color:#000000" id="rect15-7" width="45.034248" height="38.955639" x="262.48285" y="121.00073"/>
    </clipPath>
  </defs>
  <g inkscape:label="Calque 1" inkscape:groupmode="layer" id="layer1">
    <rect style="fill:#0000ff;fill-opacity:1;stroke:#000000;stroke-width:1.27259;stroke-dasharray:none;stroke-opacity:1" id="rect208" width="25.185743" height="11.956574" x="0.63629329" y="13.865461"/>
    <ellipse style="fill:#0000ff;fill-opacity:1;stroke:#000000;stroke-width:1;stroke-dasharray:none;stroke-opacity:1" id="path208" cx="7.2760391" cy="19.843769" rx="3.8977659" ry="3.8977668"/>
    <ellipse style="fill:#0000ff;fill-opacity:1;stroke:#000000;stroke-width:1;stroke-dasharray:none;stroke-opacity:1" id="path209" cx="19.182295" cy="19.843773" rx="3.9848163" ry="3.9848144"/>
    <path style="fill:none;fill-opacity:1;stroke:#000000;stroke-width:1.372;stroke-dasharray:none;stroke-opacity:1" id="path210" sodipodi:type="arc" sodipodi:cx="13.029901" sodipodi:cy="15.19893" sodipodi:rx="5" sodipodi:ry="5" sodipodi:start="3.7669267" sodipodi:end="5.7182034" sodipodi:arc-type="arc" d="m 8.9760624,12.272089 a 5,5 0 0 1 4.2046956,-2.070883 5,5 0 0 1 4.072134,2.320721" sodipodi:open="true"/>
    <path style="fill:none;fill-opacity:1;stroke:#000000;stroke-width:1.372;stroke-dasharray:none;stroke-opacity:1" id="path210-0" sodipodi:type="arc" sodipodi:cx="13.26794" sodipodi:cy="15.216236" sodipodi:rx="10" sodipodi:ry="10" sodipodi:start="3.7145668" sodipodi:end="5.7182034" sodipodi:arc-type="arc" d="M 4.8650165,9.7949002 A 10,10 0 0 1 13.307901,5.216316 10,10 0 0 1 21.713922,9.8622308" sodipodi:open="true"/>
    <path style="fill:none;fill-opacity:1;stroke:#000000;stroke-width:1.372;stroke-dasharray:none;stroke-opacity:1" id="path210-0-1" sodipodi:type="arc" sodipodi:cx="13.189131" sodipodi:cy="15.697345" sodipodi:rx="15" sodipodi:ry="15" sodipodi:start="3.7145668" sodipodi:end="5.7182034" sodipodi:arc-type="arc" d="M 0.58474614,7.5653409 A 15,15 0 0 1 13.249072,0.69746455 15,15 0 0 1 25.858105,7.6663368" sodipodi:open="true"/>
    <path style="fill:url(#pattern212);fill-opacity:1;stroke:none;stroke-width:0.616063;stroke-dasharray:none;stroke-opacity:1" d="m 71.404989,87.493311 c -3.18568,-0.27362 -5.807009,-1.573661 -8.110662,-4.022457 -2.197444,-2.335897 -3.292213,-5.131959 -3.305438,-8.442151 -0.0088,-2.210297 0.44232,-4.06283 1.44343,-5.927085 2.739829,-5.102077 8.570627,-7.681971 14.155482,-6.263234 4.407789,1.119723 7.955073,4.669724 9.080175,9.087126 1.237509,4.858742 -0.595614,10.059153 -4.612837,13.086222 -1.74321,1.313548 -4.258626,2.312144 -6.151578,2.442121 -0.492048,0.03378 -1.028295,0.076 -1.191659,0.09381 -0.163364,0.01781 -0.751475,-0.0066 -1.306913,-0.05435 z" id="path211" transform="scale(0.26458333)"/>
    <path style="fill:url(#pattern213);fill-opacity:1;stroke:none;stroke-width:0.616092;stroke-dasharray:none;stroke-opacity:1" d="M 25.722429,86.777954 C 21.783377,86.209902 18.12087,83.343632 16.519916,79.576086 15.894438,78.10414 15.644708,76.83067 15.639815,75.088108 c -0.0073,-2.603672 0.643722,-4.754375 2.067972,-6.831592 1.536832,-2.241416 4.091706,-4.053728 6.707729,-4.758161 1.213743,-0.326833 3.720756,-0.444294 5.017602,-0.23509 4.589052,0.740294 8.412966,4.264114 9.608657,8.854585 0.258381,0.991968 0.309896,1.452886 0.312056,2.792042 0.0029,1.778088 -0.150279,2.6682 -0.739009,4.295236 -0.936992,2.589503 -3.247839,5.166246 -5.763775,6.42698 -2.108112,1.056373 -4.775708,1.48516 -7.128618,1.145846 z" id="path212" transform="scale(0.26458333)"/>
  </g>
</svg>